<?xml version="1.0" encoding="UTF-8" standalone="no"?>
<svg
   xmlns:dc="http://purl.org/dc/elements/1.1/"
   xmlns:cc="http://creativecommons.org/ns#"
   xmlns:rdf="http://www.w3.org/1999/02/22-rdf-syntax-ns#"
   xmlns:svg="http://www.w3.org/2000/svg"
   xmlns="http://www.w3.org/2000/svg"
   xmlns:xlink="http://www.w3.org/1999/xlink"
   xmlns:sodipodi="http://sodipodi.sourceforge.net/DTD/sodipodi-0.dtd"
   xmlns:inkscape="http://www.inkscape.org/namespaces/inkscape"
   width="245.425mm"
   height="52.721001mm"
   viewBox="0 0 245.425 52.721001"
   version="1.1"
   id="svg8"
   inkscape:version="1.0 (4035a4fb49, 2020-05-01)"
   sodipodi:docname="gh-readme-card-bottom.svg">
  <defs
     id="defs2">
    <linearGradient
       gradientTransform="matrix(0.64416011,0,0,0.64419514,-18.017307,-68.031261)"
       gradientUnits="userSpaceOnUse"
       y2="140.00777"
       x2="28.378433"
       y1="144.81862"
       x1="409.63113"
       id="linearGradient1277"
       xlink:href="#linearGradient1656"
       inkscape:collect="always" />
    <linearGradient
       id="linearGradient1656"
       inkscape:collect="always">
      <stop
         id="stop1652"
         offset="0"
         style="stop-color:#ffcc00;stop-opacity:1;" />
      <stop
         id="stop1654"
         offset="1"
         style="stop-color:#ff6600;stop-opacity:1" />
    </linearGradient>
    <linearGradient
       inkscape:collect="always"
       xlink:href="#linearGradient1656"
       id="linearGradient1277-0"
       x1="409.63113"
       y1="144.81862"
       x2="28.378433"
       y2="140.00777"
       gradientUnits="userSpaceOnUse"
       gradientTransform="matrix(0.64416011,0,0,0.77835543,-18.017307,-91.286639)" />
  </defs>
  <sodipodi:namedview
     id="base"
     pagecolor="#ffffff"
     bordercolor="#666666"
     borderopacity="1.0"
     inkscape:pageopacity="0.0"
     inkscape:pageshadow="2"
     inkscape:zoom="0.98994949"
     inkscape:cx="476.2835"
     inkscape:cy="51.817254"
     inkscape:document-units="mm"
     inkscape:current-layer="layer1"
     inkscape:document-rotation="0"
     showgrid="false"
     inkscape:window-width="1920"
     inkscape:window-height="996"
     inkscape:window-x="-9"
     inkscape:window-y="44"
     inkscape:window-maximized="1" />
  <metadata
     id="metadata5">
    <rdf:RDF>
      <cc:Work
         rdf:about="">
        <dc:format>image/svg+xml</dc:format>
        <dc:type
           rdf:resource="http://purl.org/dc/dcmitype/StillImage" />
        <dc:title></dc:title>
      </cc:Work>
    </rdf:RDF>
  </metadata>
  <g
     inkscape:label="Layer 1"
     inkscape:groupmode="layer"
     id="layer1">
    <g
       transform="translate(0,9.0871638)"
       id="g861">
      <path
         id="path1260"
         d="M 0,38.179491 10.226042,35.452399 C 20.452087,32.725299 40.904165,27.27108 61.356256,19.08976 81.808337,10.90843 102.26042,0 122.7125,0.90335 c 20.45208,0.97153 40.90416,13.58441 61.35624,15.4593 20.45208,1.87488 40.90418,-7.32911 51.13021,-11.81179 L 245.42499,0 v 43.633681 h -10.22604 c -10.22603,0 -30.67813,0 -51.13021,0 -20.45208,0 -40.90416,0 -61.35624,0 -20.45208,0 -40.904163,0 -61.356244,0 -20.452091,0 -40.904169,0 -51.130214,0 H 0 Z"
         fill-opacity="1"
         fill="#0099ff"
         style="fill:url(#linearGradient1277);fill-opacity:1;stroke-width:0.170438" />
      <path
         style="opacity:0;fill:url(#linearGradient1277-0);fill-opacity:1;stroke-width:0.187347"
         fill="#0099ff"
         fill-opacity="1"
         d="M 0,37.0436 10.226042,33.748563 C 20.452087,30.453516 40.904165,23.863399 61.356256,13.978235 81.808339,4.0930591 102.26042,-9.0871638 122.7125,-7.9956821 143.16458,-6.821821 163.61666,8.4178214 184.06874,10.683177 204.52082,12.94852 224.97292,1.8277039 235.19895,-3.5885404 L 245.425,-9.0871638 V 43.633681 h -10.22605 c -10.22603,0 -30.67813,0 -51.13021,0 -20.45208,0 -40.90416,0 -61.35624,0 -20.45208,0 -40.904161,0 -61.356244,0 -20.452091,0 -40.904169,0 -51.130214,0 H 0 Z"
         id="path1260-0" />
    </g>
  </g>
</svg>
